<?xml version="1.0" encoding="UTF-8" standalone="no"?>
<!-- Created with Inkscape (http://www.inkscape.org/) -->

<svg
   xmlns:dc="http://purl.org/dc/elements/1.1/"
   xmlns:cc="http://creativecommons.org/ns#"
   xmlns:rdf="http://www.w3.org/1999/02/22-rdf-syntax-ns#"
   xmlns:svg="http://www.w3.org/2000/svg"
   xmlns="http://www.w3.org/2000/svg"
   version="1.1"
   width="48"
   height="48"
   id="svg2986">
  <defs
     id="defs2988">
    <filter
       color-interpolation-filters="sRGB"
       id="filter3934">
      <feGaussianBlur
         id="feGaussianBlur3936"
         stdDeviation="0.79297125" />
    </filter>
  </defs>
  <metadata
     id="metadata2991">
    <rdf:RDF>
      <cc:Work
         rdf:about="">
        <dc:format>image/svg+xml</dc:format>
        <dc:type
           rdf:resource="http://purl.org/dc/dcmitype/StillImage" />
        <dc:title></dc:title>
      </cc:Work>
    </rdf:RDF>
  </metadata>
  <g
     transform="translate(0,-1004.3622)"
     id="layer1">
    <path
       d="m 27.46875,1018.331 c -2.017675,0 -3.830671,0.9395 -5.03125,2.375 -0.426057,-0.087 -0.86067,-0.1563 -1.3125,-0.1563 -3.378186,0 -6.150687,2.5583 -6.5,5.8438 -1.694521,0.3467 -3.038574,1.6314 -3.5,3.2812 -1.8769923,0.3393 -3.3125,1.9627 -3.3125,3.9375 0,0.246 0.051454,0.485 0.09375,0.7188 -0.9669828,0.8452 -1.59375,2.0522 -1.59375,3.4375 0,2.5467 2.0470692,4.625 4.59375,4.625 0.106112,0 0.208177,-0.024 0.3125,-0.031 l 29.09375,0 c 0.0523,0 0.103578,0 0.15625,0 2.875285,0 5.21875,-2.3122 5.21875,-5.1875 0,-2.1565 -1.318929,-4.0222 -3.1875,-4.8125 0.273711,-0.6224 0.4375,-1.3077 0.4375,-2.0312 0,-2.7931 -2.269367,-5.0625 -5.0625,-5.0625 -0.229628,0 -0.465985,0.033 -0.6875,0.062 -0.567813,-1.8619 -2.100477,-3.2925 -4.03125,-3.6875 -1.127643,-1.9716 -3.25354,-3.3125 -5.6875,-3.3125 z"
       id="path3932"
       style="opacity:0.5;fill:#007fff;fill-opacity:1;stroke:#007fff;stroke-width:1px;stroke-linecap:butt;stroke-linejoin:miter;stroke-opacity:1;filter:url(#filter3934)" />
    <path
       d="m 25.46875,1016.331 c -2.017675,0 -3.830671,0.9395 -5.03125,2.375 -0.426057,-0.087 -0.86067,-0.1563 -1.3125,-0.1563 -3.378186,0 -6.150687,2.5583 -6.5,5.8438 -1.694521,0.3467 -3.0385743,1.6314 -3.5,3.2812 -1.8769923,0.3393 -3.3125,1.9627 -3.3125,3.9375 0,0.246 0.051454,0.485 0.09375,0.7188 -0.9669828,0.8452 -1.59375,2.0522 -1.59375,3.4375 0,2.5467 2.0470692,4.625 4.59375,4.625 0.1061117,0 0.208177,-0.024 0.3125,-0.031 l 29.09375,0 c 0.0523,0 0.103578,0 0.15625,0 2.875285,0 5.21875,-2.3122 5.21875,-5.1875 0,-2.1565 -1.318929,-4.0222 -3.1875,-4.8125 0.273711,-0.6224 0.4375,-1.3077 0.4375,-2.0312 0,-2.7931 -2.269367,-5.0625 -5.0625,-5.0625 -0.229628,0 -0.465985,0.033 -0.6875,0.062 -0.567813,-1.8619 -2.100477,-3.2925 -4.03125,-3.6875 -1.127643,-1.9716 -3.25354,-3.3125 -5.6875,-3.3125 z"
       id="path2998"
       style="fill:#ffffff;fill-opacity:1;stroke:#007fff;stroke-width:1px;stroke-linecap:butt;stroke-linejoin:miter;stroke-opacity:1" />
  </g>
</svg>
